<?xml version="1.0" encoding="UTF-8" standalone="no"?><!DOCTYPE svg PUBLIC "-//W3C//DTD SVG 1.1//EN" "http://www.w3.org/Graphics/SVG/1.1/DTD/svg11.dtd"><svg width="100%" height="100%" viewBox="0 0 278 278" version="1.1" xmlns="http://www.w3.org/2000/svg" xmlns:xlink="http://www.w3.org/1999/xlink" xml:space="preserve" xmlns:serif="http://www.serif.com/" style="fill-rule:evenodd;clip-rule:evenodd;stroke-linejoin:round;stroke-miterlimit:2;"><rect id="Artboard1" x="0" y="0" width="277.384" height="277.384" style="fill:none;"/><g><path d="M38.692,38.322l-0,200c-0,18.386 14.948,33.334 33.333,33.334l133.333,-0c18.386,-0 33.334,-14.948 33.334,-33.334l-0,-150l-66.667,0c-9.219,0 -16.667,-7.448 -16.667,-16.666l0,-66.667l-83.333,-0c-18.385,-0 -33.333,14.948 -33.333,33.333Z" style="fill:#fff;fill-rule:nonzero;stroke:#000;stroke-width:7.17px;"/><path d="M155.358,4.989l83.334,83.333l-66.667,0c-9.219,0 -16.667,-7.448 -16.667,-16.666l0,-66.667Z" style="fill:#00a8e3;fill-rule:nonzero;stroke:#000;stroke-width:7.17px;"/><circle cx="106.874" cy="174.612" r="25.111" style="fill:none;stroke:#000;stroke-width:7.17px;stroke-linecap:round;stroke-miterlimit:1.5;"/><circle cx="182.289" cy="134.285" r="20.538" style="fill:none;stroke:#000;stroke-width:7.17px;stroke-linecap:round;stroke-miterlimit:1.5;"/><circle cx="174.972" cy="221.092" r="20.538" style="fill:none;stroke:#000;stroke-width:7.17px;stroke-linecap:round;stroke-miterlimit:1.5;"/><path d="M128.825,189.579l28.962,19.666" style="fill:none;stroke:#000;stroke-width:7.17px;stroke-linecap:round;stroke-miterlimit:1.5;"/><path d="M162.417,140.022l-33.592,19.956" style="fill:none;stroke:#000;stroke-width:7.17px;stroke-linecap:round;stroke-miterlimit:1.5;"/><path d="M102.531,53.942c-1.754,-0.453 -3.58,0.463 -4.085,2.035l-13.207,41.444c-0.505,1.573 0.516,3.21 2.27,3.663c1.754,0.454 3.58,-0.462 4.086,-2.035l13.206,-41.444c0.506,-1.572 -0.516,-3.21 -2.27,-3.663Zm8.316,11.11c-1.29,1.157 -1.29,3.035 0,4.191l9.214,8.27l-9.224,8.271c-1.29,1.156 -1.29,3.034 -0,4.19c1.289,1.157 3.384,1.157 4.674,0l11.555,-10.361c1.29,-1.156 1.29,-3.034 0,-4.19l-11.555,-10.361c-1.29,-1.157 -3.385,-1.157 -4.674,-0l0.01,-0.01Zm-31.643,0c-1.29,-1.156 -3.384,-1.156 -4.674,0l-11.555,10.361c-1.29,1.157 -1.29,3.035 -0,4.191l11.555,10.361c1.29,1.156 3.384,1.156 4.674,-0c1.289,-1.156 1.289,-3.034 -0,-4.191l-9.224,-8.261l9.224,-8.27c1.289,-1.156 1.289,-3.034 -0,-4.191Z" style="fill-rule:nonzero;"/></g></svg>